<svg width="28" height="28" viewBox="0 0 28 28" fill="none" xmlns="http://www.w3.org/2000/svg">
<path d="M14 14C16.5773 14 18.6667 11.9107 18.6667 9.33335C18.6667 6.75602 16.5773 4.66669 14 4.66669C11.4227 4.66669 9.33334 6.75602 9.33334 9.33335C9.33334 11.9107 11.4227 14 14 14Z" stroke="#3A3A3A"/>
<path d="M23.3333 22.1667V23.3334C23.3333 23.6428 23.2104 23.9395 22.9916 24.1583C22.7728 24.3771 22.4761 24.5 22.1667 24.5H5.83334C5.52392 24.5 5.22717 24.3771 5.00838 24.1583C4.78959 23.9395 4.66667 23.6428 4.66667 23.3334V22.1667C4.66667 20.3102 5.40417 18.5297 6.71692 17.2169C8.02968 15.9042 9.81016 15.1667 11.6667 15.1667H16.3333C18.1899 15.1667 19.9703 15.9042 21.2831 17.2169C22.5958 18.5297 23.3333 20.3102 23.3333 22.1667Z" stroke="#3A3A3A"/>
</svg>
